<svg width="17" height="17" viewBox="0 0 17 17" fill="none" xmlns="http://www.w3.org/2000/svg">
<path fill-rule="evenodd" clip-rule="evenodd" d="M1.66667 11.6667V13.3333C1.66667 15.175 3.15917 16.6667 5 16.6667H13.3333C15.175 16.6667 16.6667 15.175 16.6667 13.3333C16.6667 10.5592 16.6667 6.10833 16.6667 3.33333C16.6667 1.4925 15.175 0 13.3333 0C10.9508 0 7.38333 0 5 0C3.15917 0 1.66667 1.4925 1.66667 3.33333V5C1.66667 5.46 2.04 5.83333 2.5 5.83333C2.96 5.83333 3.33333 5.46 3.33333 5C3.33333 5 3.33333 4.21917 3.33333 3.33333C3.33333 2.41333 4.08 1.66667 5 1.66667H13.3333C14.2542 1.66667 15 2.41333 15 3.33333V13.3333C15 14.2542 14.2542 15 13.3333 15C10.9508 15 7.38333 15 5 15C4.08 15 3.33333 14.2542 3.33333 13.3333C3.33333 12.4483 3.33333 11.6667 3.33333 11.6667C3.33333 11.2075 2.96 10.8333 2.5 10.8333C2.04 10.8333 1.66667 11.2075 1.66667 11.6667ZM7.98833 7.5L6.91083 6.42333C6.58583 6.09749 6.58583 5.57 6.91083 5.24417C7.23667 4.91917 7.76417 4.91917 8.08917 5.24417L10.5892 7.74417C10.915 8.07 10.915 8.59749 10.5892 8.92333L8.08917 11.4233C7.76417 11.7483 7.23667 11.7483 6.91083 11.4233C6.58583 11.0975 6.58583 10.57 6.91083 10.2442L7.98833 9.16667H0.833333C0.373333 9.16667 0 8.79333 0 8.33333C0 7.87417 0.373333 7.5 0.833333 7.5H7.98833Z" fill="#84BE51"/>
</svg>
