<svg width="19" height="16" viewBox="0 0 19 16" fill="none" xmlns="http://www.w3.org/2000/svg">
<path d="M12.1904 0.427734C14.8149 0.427735 16.9502 2.56372 16.9502 5.18848C16.9499 6.52094 16.5186 7.89597 15.6797 9.27344C15.0159 10.3633 14.0946 11.4597 12.9443 12.5332C10.9941 14.3532 9.01596 15.5067 8.99219 15.5205C8.93267 15.5549 8.86611 15.5723 8.7998 15.5723C8.73347 15.5723 8.66693 15.5549 8.60742 15.5205C8.60214 15.518 8.59324 15.5137 8.58301 15.5088C8.56179 15.4985 8.53106 15.4834 8.49219 15.4639C8.41454 15.4248 8.30337 15.3674 8.16406 15.29C7.88504 15.1351 7.49232 14.9008 7.0293 14.5781C6.10343 13.9329 4.89232 12.9324 3.7334 11.502C3.60017 11.337 3.62622 11.0954 3.79102 10.9619C3.95587 10.8285 4.19742 10.8536 4.33105 11.0186C6.22899 13.3612 8.10932 14.336 8.7959 14.7383C9.32754 14.4099 10.8874 13.4027 12.4268 11.9648C13.2881 11.1603 14.2288 10.1381 14.9531 8.97852C15.6777 7.81851 16.1803 6.52947 16.1807 5.18848C16.1807 2.98789 14.3907 1.19727 12.1904 1.19727C10.9869 1.19727 9.85996 1.7322 9.09766 2.66602C9.02464 2.75545 8.91517 2.80762 8.7998 2.80762C8.68439 2.80762 8.57497 2.75542 8.50195 2.66602C7.73964 1.73223 6.61272 1.19727 5.40918 1.19727C3.20887 1.19727 1.41895 2.98719 1.41895 5.1875C1.41895 6.55869 1.93882 8.00613 2.98145 9.49121C3.1033 9.66487 3.06121 9.90437 2.8877 10.0264C2.71398 10.1484 2.47454 10.1064 2.35254 9.93262C1.22831 8.33133 0.649414 6.7345 0.649414 5.1875C0.649414 2.563 2.78471 0.427734 5.40918 0.427734C6.69524 0.427735 7.90766 0.941922 8.7998 1.84961C9.69195 0.94195 10.9044 0.427734 12.1904 0.427734Z" fill="#8C3213" stroke="#8C3213" stroke-width="0.3"/>
</svg>
